<?xml version="1.0" encoding="UTF-8" standalone="no"?>
<!-- Created with Inkscape (http://www.inkscape.org/) -->

<svg
   width="210mm"
   height="297mm"
   viewBox="0 0 210 297"
   version="1.1"
   id="svg5"
   xmlns="http://www.w3.org/2000/svg"
   xmlns:svg="http://www.w3.org/2000/svg">
  <defs
     id="defs2" />
  <g
     id="layer1">
    <path
       style="fill:#800080;stroke-width:0.352778"
       d="m 126.86936,165.35723 c -5.46138,-0.25657 -21.48742,-0.93034 -44.273608,-1.86137 l -9.877779,-0.4036 7.740845,-3.12887 c 4.257464,-1.72088 8.414833,-3.37867 9.238602,-3.68399 1.4617,-0.54174 1.855788,-0.49343 16.37042,2.00654 8.17997,1.4089 15.1351,2.65267 15.45585,2.76393 0.51833,0.17979 0.52433,0.14352 0.054,-0.32617 -0.88755,-0.88635 -38.763601,-30.26943 -39.268192,-30.46306 -0.361766,-0.13882 -0.875055,2.03374 -2.209175,9.35064 l -1.737915,9.53148 -4.586111,-0.20054 c -2.522362,-0.11029 -6.904025,-0.3054 -9.73703,-0.43358 l -5.150919,-0.23305 14.675919,-18.05313 14.675919,-18.05313 3.527779,0.19864 c 1.940278,0.10925 3.580956,0.243 3.645948,0.29722 0.06499,0.0542 -2.832195,3.63491 -6.438196,7.95709 -3.606,4.32217 -6.556364,7.98639 -6.556364,8.14271 0,0.15631 0.81348,0.28421 1.807734,0.28421 2.251085,0 65.292803,2.8048 65.673843,2.92191 0.2865,0.0881 -20.57011,10.22151 -21.44029,10.41705 -0.26873,0.0604 -8.15826,-2.29743 -17.5323,-5.2396 -9.37404,-2.94216 -17.978449,-5.6408 -19.120909,-5.99699 -1.142461,-0.35618 -1.936211,-0.51867 -1.763889,-0.36109 0.172321,0.15759 11.981438,5.72401 26.242478,12.36983 14.26104,6.64583 26.05686,12.19895 26.21292,12.34028 0.24178,0.21895 -0.35005,2.98963 -1.90421,8.91459 l -0.34702,1.32291 -3.77876,-0.0537 c -2.07832,-0.0296 -6.39814,-0.17677 -9.5996,-0.32716 z"
       id="path513" />
  </g>
</svg>
